# xmcd
# 
# Track frame offsets:
#     150
#     20830
#     35023
#     52463
#     71531
#     94518
#     113728
#     133628
#     155750
#     178395
#     197608
#     215451
#     230926
#     252611
#     271559
#     293401
#     314176
# 
# Disc length: 4420
# 
# Revision: 2
# Processed by: cddbd v1.5.2PL0 Copyright (c) Steve Scherf et al.
# Submitted via: BonkEnc v1.0.8
# 
DISCID=0f114211
DTITLE=Whitney Houston - Platinum - More Gold 1998
DYEAR=1998
DGENRE=Pop
TTITLE0=I will always love you
TTITLE1=Step by step
TTITLE2=I´m every woman
TTITLE3=All the man that I need
TTITLE4=One moment in time
TTITLE5=Exhale (shoop shoop)
TTITLE6=I believe in you and me
TTITLE7=I´m your baby tonight
TTITLE8=Greatest love of all
TTITLE9=I have nothing
TTITLE10=Run to you
TTITLE11=My heart is calling
TTITLE12=Didn´t we almost have it all
TTITLE13=You´re still my man
TTITLE14=I know him so well
TTITLE15=Queen of the night
TTITLE16=Nobody loves me like you do
EXTD=
EXTT0=
EXTT1=
EXTT2=
EXTT3=
EXTT4=
EXTT5=
EXTT6=
EXTT7=
EXTT8=
EXTT9=
EXTT10=
EXTT11=
EXTT12=
EXTT13=
EXTT14=
EXTT15=
EXTT16=
PLAYORDER=
